<?xml version="1.0" encoding="iso-8859-1"?>
<!-- Uploaded to: SVG Repo, www.svgrepo.com, Generator: SVG Repo Mixer Tools -->
<svg height="800px" width="800px" version="1.1" id="Layer_1" xmlns="http://www.w3.org/2000/svg" xmlns:xlink="http://www.w3.org/1999/xlink" 
	 viewBox="0 0 512.001 512.001" xml:space="preserve">
<polyline style="fill:#CCCCCC;" points="229.692,295.099 93.877,295.099 137.874,251.102 "/>
<path style="fill:#E6E6E6;" d="M355.694,85.646v125.589c0,32.15-18.088,60.067-44.652,74.14c-11.695,6.207-25.037,9.72-39.208,9.72
	H229.69c-32.532,0-61.987-13.189-83.304-34.507c-16.244-16.244-27.764-37.212-32.325-60.656c-1.44-7.331-2.182-14.902-2.182-22.648
	h137.033V85.646c0-29.51,23.935-53.391,53.38-53.391h0.48c6.48,0.055,12.688,1.265,18.415,3.436
	C341.37,43.328,355.694,62.824,355.694,85.646z"/>
<g>
	<path style="fill:#CCCCCC;" d="M321.199,35.703c0,0-43.376,4.233-43.376,76.257s0,72.024,0,72.024l-43.638-6.698h14.728V85.646
		c0-29.51,23.935-53.391,53.38-53.391h0.48c6.48,0.055,12.688,1.265,18.415,3.436L321.199,35.703z"/>
	<path style="fill:#CCCCCC;" d="M311.041,285.376c-11.695,6.207-25.037,9.72-39.208,9.72h-42.143
		c-32.532,0-61.987-13.189-83.304-34.507c-16.244-16.244-27.764-37.212-32.325-60.656
		C114.061,199.933,164.256,285.376,311.041,285.376z"/>
</g>
<path style="fill:#F24141;" d="M322.715,405.587c0,7.277-1.167,14.28-3.316,20.837c-18.448-2.509-19.833-21.546-40.888-21.546
	c-22.528,0-22.528,21.819-45.056,21.819c-22.212,0-22.517-21.23-44.15-21.808c0.371-36.525,30.077-66.013,66.7-66.013
	c11.062,0,21.492,2.695,30.677,7.462C308.085,357.443,322.715,379.808,322.715,405.587z"/>
<path style="fill:#D83535;" d="M233.454,426.697c-22.212,0-22.517-21.23-44.15-21.808c0.371-36.525,30.077-66.013,66.7-66.013
	c11.062,0,21.492,2.695,30.677,7.462C285.263,346.458,225.196,351.76,233.454,426.697z"/>
<path style="fill:#89E5B9;" d="M503.818,479.742c-22.532,0-22.532-21.819-45.065-21.819c-22.532,0-22.532,21.819-45.065,21.819
	c-22.529,0-22.529-21.819-45.058-21.819c-22.53,0-22.53,21.819-45.059,21.819s-22.529-21.819-45.057-21.819
	s-22.528,21.819-45.057,21.819c-22.526,0-22.526-21.819-45.052-21.819c-22.528,0-22.528,21.819-45.056,21.819
	c-22.529,0-22.529-21.819-45.057-21.819s-22.528,21.819-45.057,21.819c-22.527,0-22.527-21.819-45.055-21.819v-53.05
	c22.527,0,22.527,21.819,45.055,21.819s22.528-21.819,45.057-21.819s22.529,21.819,45.057,21.819s22.528-21.819,45.056-21.819
	c22.526,0,22.526,21.819,45.052,21.819c22.528,0,22.528-21.819,45.057-21.819s22.529,21.819,45.057,21.819
	c22.53,0,22.53-21.819,45.059-21.819s22.529,21.819,45.058,21.819c22.532,0,22.532-21.819,45.065-21.819
	s22.532,21.819,45.065,21.819"/>
<path d="M161.092,185.466h87.821c0.041,0,0.081-0.005,0.122-0.007c0.039,0,0.076,0.003,0.116,0.002
	c0.199-0.002,20.77-0.397,33.132,11.648c6.363,6.201,9.59,14.945,9.59,25.991c0,4.519,3.662,8.182,8.182,8.182
	s8.182-3.663,8.182-8.182c0-15.682-4.925-28.404-14.636-37.81c-11.545-11.182-27.042-14.664-36.506-15.732V85.649
	c0-12.151,4.752-23.555,13.384-32.109s20.09-13.228,32.226-13.098c24.707,0.219,44.807,20.499,44.807,45.206v125.585
	c0,13.004-3.35,25.825-9.689,37.079c-2.217,3.937-0.824,8.927,3.114,11.144c1.27,0.715,2.648,1.054,4.008,1.054
	c2.858,0,5.634-1.5,7.137-4.168c7.715-13.699,11.794-29.297,11.794-45.108V93.08c6.199-0.266,15.776,0.081,24.817,3.5
	c0.953,0.361,1.932,0.531,2.893,0.531c3.303,0,6.416-2.016,7.654-5.29c1.599-4.226-0.531-8.949-4.758-10.547
	c-11.616-4.394-23.455-4.896-31.265-4.56c-4.334-29.471-29.751-52.363-60.367-52.635c-16.503-0.139-32.137,6.189-43.891,17.839
	c-11.754,11.65-18.227,27.181-18.227,43.73v83.453h-79.639c-4.519,0-8.182,3.663-8.182,8.182
	C152.911,181.802,156.573,185.466,161.092,185.466z"/>
<path d="M314.488,75.174c-4.1-6.239-13.967-3.775-14.912,3.539c-0.935,7.244,7.853,11.924,13.399,7.249
	C316.129,83.305,316.75,78.601,314.488,75.174z"/>
<path d="M413.69,434.874c14.577,0,22.144-7.327,28.223-13.214c5.159-4.995,8.887-8.605,16.842-8.605
	c7.953,0,11.681,3.61,16.84,8.605c6.08,5.887,13.647,13.214,28.225,13.214c4.52,0,8.182-3.663,8.182-8.182s-3.662-8.182-8.182-8.182
	c-7.954,0-11.682-3.61-16.842-8.605c-6.079-5.887-13.645-13.214-28.223-13.214c-14.578,0-22.145,7.327-28.225,13.214
	c-5.159,4.995-8.887,8.605-16.84,8.605c-4.52,0-8.182,3.663-8.182,8.182S409.17,434.874,413.69,434.874z"/>
<path d="M8.336,413.055c7.845,0.047,11.556,3.642,16.681,8.604c6.079,5.888,13.643,13.215,28.219,13.215
	c14.577,0,22.142-7.327,28.221-13.215c5.158-4.995,8.885-8.604,16.837-8.604s11.679,3.609,16.837,8.604
	c6.079,5.887,13.644,13.215,28.222,13.215c14.577,0,22.142-7.327,28.22-13.215c5.158-4.995,8.885-8.604,16.835-8.604
	c7.95,0,11.676,3.609,16.833,8.604c6.078,5.887,13.642,13.215,28.218,13.215c14.577,0,22.142-7.327,28.22-13.215
	c5.158-4.995,8.885-8.604,16.837-8.604s11.679,3.609,16.837,8.604c5.261,5.095,11.644,11.257,22.71,12.827
	c0.041,0.007,0.082,0.014,0.123,0.021c1.686,0.233,3.472,0.367,5.388,0.367c14.577,0,22.144-7.327,28.223-13.215
	c5.159-4.995,8.886-8.604,16.838-8.604c7.85,0,11.583,3.517,16.639,8.413c2.995,2.9,7.752,3.325,10.997,0.708
	c3.909-3.153,4.077-8.889,0.585-12.271c-6.078-5.887-13.642-13.215-28.221-13.215c-14.577,0-22.143,7.327-28.222,13.214
	c-3.551,3.439-6.423,6.221-10.463,7.62c0.631-3.934,0.95-7.924,0.95-11.943c0-34.304-23.191-63.272-54.711-72.108v-30.303
	c23.375-1.077,45.092-10.805,61.548-27.679c3.156-3.235,3.091-8.416-0.145-11.571c-3.235-3.156-8.417-3.09-11.569,0.145
	c-14.369,14.733-33.613,22.848-54.187,22.848l-42.14,0.003c-57.7,0-105.132-44.807-109.331-101.452h16.185
	c4.519,0,8.182-3.663,8.182-8.182l0,0c0-4.519-3.663-8.182-8.182-8.182H111.88c-4.51,0-8.182,3.657-8.182,8.167
	c-0.003,27.211,8.666,52.434,23.387,73.055l-38.826,38.826c-1.893,1.893-2.898,4.569-2.469,7.21c0.663,4.09,4.144,6.922,8.089,6.922
	h135.816h4.973v30.533c-9.391,2.792-18.218,7.399-25.887,13.636c-3.236,2.631-4.151,7.346-1.903,10.858
	c2.691,4.203,8.345,5.015,12.092,1.948c10.405-8.514,23.558-13.203,37.038-13.203c32.273,0,58.529,26.256,58.529,58.529
	c0,3.439-0.308,6.847-0.897,10.2c-2.374-1.503-4.482-3.535-6.901-5.878c-6.079-5.887-13.644-13.215-28.221-13.215
	c-14.576,0-22.142,7.327-28.22,13.215c-5.158,4.995-8.885,8.604-16.837,8.604c-7.95,0-11.675-3.609-16.832-8.604
	c-4.58-4.436-10.007-9.686-18.639-12.007c0.807-6.213,2.59-12.204,5.351-17.883c1.921-3.951,0.506-8.881-3.358-10.972
	c-4.112-2.223-9.209-0.568-11.248,3.589c-3.829,7.81-6.211,16.079-7.148,24.661c-10.262,1.855-16.35,7.722-21.398,12.61
	c-5.158,4.995-8.885,8.604-16.837,8.604c-7.952,0-11.679-3.61-16.837-8.604c-6.079-5.887-13.643-13.215-28.22-13.215
	s-22.142,7.327-28.22,13.215c-5.158,4.995-8.885,8.604-16.837,8.604c-7.951,0-11.677-3.609-16.835-8.604
	c-6.079-5.888-13.643-13.215-28.219-13.215c-4.653,0-8.398,3.884-8.172,8.586C0.218,409.623,3.985,413.03,8.336,413.055z
	 M113.629,286.917l23.86-23.86c8.754,9.404,18.922,17.473,30.167,23.86H113.629z M251.028,330.874v-27.592h4.845
	c0.081,0,0.159-0.001,0.241-0.003h3.707v27.508c-1.264-0.064-2.538-0.097-3.818-0.097
	C254.339,330.689,252.682,330.762,251.028,330.874z"/>
<path d="M503.818,471.56c-7.954,0-11.682-3.61-16.841-8.605c-6.08-5.887-13.647-13.214-28.224-13.214
	c-14.578,0-22.145,7.327-28.225,13.214c-5.159,4.995-8.887,8.605-16.84,8.605c-7.952,0-11.679-3.61-16.838-8.605
	c-6.079-5.887-13.644-13.214-28.221-13.214c-14.577,0-22.143,7.327-28.222,13.214c-5.159,4.995-8.886,8.605-16.839,8.605
	c-7.952,0-11.679-3.609-16.837-8.604c-6.079-5.887-13.644-13.215-28.22-13.215c-14.576,0-22.142,7.327-28.221,13.215
	c-5.158,4.995-8.885,8.604-16.837,8.604c-7.95,0-11.675-3.609-16.832-8.604c-6.078-5.888-13.642-13.215-28.218-13.215
	c-14.576,0-22.142,7.327-28.22,13.215c-5.158,4.995-8.885,8.604-16.837,8.604s-11.679-3.609-16.837-8.604
	c-3.247-3.144-8.428-3.061-11.569,0.185c-3.144,3.247-3.061,8.426,0.185,11.569c6.079,5.887,13.644,13.213,28.22,13.213
	c14.577,0,22.142-7.327,28.22-13.215c5.158-4.995,8.885-8.604,16.835-8.604c7.95,0,11.676,3.609,16.833,8.604
	c6.078,5.887,13.642,13.215,28.218,13.215c14.577,0,22.142-7.327,28.22-13.215c5.158-4.995,8.885-8.604,16.837-8.604
	s11.679,3.609,16.837,8.604c6.079,5.887,13.644,13.215,28.221,13.215c14.577,0,22.144-7.327,28.223-13.215
	c5.159-4.995,8.886-8.604,16.838-8.604c7.951,0,11.679,3.609,16.837,8.604c6.079,5.887,13.644,13.215,28.222,13.215
	s22.144-7.327,28.224-13.213c5.159-4.997,8.887-8.605,16.841-8.605c7.953,0,11.681,3.61,16.84,8.605
	c6.08,5.887,13.647,13.213,28.225,13.213c4.52,0,8.182-3.663,8.182-8.182S508.337,471.56,503.818,471.56z"/>
<path d="M98.294,449.742c-14.577,0-22.142,7.327-28.221,13.215c-5.158,4.995-8.885,8.604-16.837,8.604
	c-7.951,0-11.677-3.609-16.835-8.604c-6.079-5.888-13.643-13.215-28.219-13.215c-4.519,0-8.182,3.663-8.182,8.182
	s3.663,8.182,8.182,8.182c7.951,0,11.677,3.609,16.835,8.604c6.079,5.887,13.643,13.215,28.219,13.215
	c14.577,0,22.142-7.327,28.221-13.215c5.158-4.995,8.885-8.604,16.837-8.604c4.519,0,8.182-3.663,8.182-8.182
	S102.813,449.742,98.294,449.742z"/>
</svg>